<svg id="Layer_1" data-name="Layer 1" xmlns="http://www.w3.org/2000/svg" viewBox="0 0 1000 1000"><defs><style>.cls-1{fill:#231f20;stroke:#231f20;stroke-miterlimit:10;}</style></defs><title>OMNIA_logo_v1</title><path class="cls-1" d="M0,0V1000H1000V0ZM482.32,948.78,286.48,835.72,90.64,948.78,55.09,887.2,250.92,774.13V548H322V774.13L517.87,887.2ZM749.08,644V870.13H678V644L482.13,530.93l.17-.29L286.48,417.58,90.64,530.65,55.09,469.07,250.92,356V129.87H322V356L517.87,469.07l-.17.29L713.52,582.42,909.36,469.35l35.55,61.58Zm0-418.13V452H678V225.87L482.13,112.8l35.55-61.58L713.52,164.28,909.36,51.22l35.55,61.58Z"/></svg>